<?xml version="1.0" ?><svg id="object" viewBox="0 0 32 32" xmlns="http://www.w3.org/2000/svg"><defs><style>.cls-1{fill:#96d7ff;}.cls-2{fill:#86c3ef;}.cls-3{fill:#ffc661;}.cls-4{fill:#e49f4e;}.cls-5{fill:#91e085;}.cls-6{fill:#84bf6f;}</style></defs><title/><rect class="cls-1" height="22" rx="3" ry="3" width="30" x="1" y="5"/><path class="cls-2" d="M29.5,25.92H5.5a3,3,0,0,1-3-3v-16a3,3,0,0,1,.58-1.76A3,3,0,0,0,1,8V24a3,3,0,0,0,3,3H28a3,3,0,0,0,2.42-1.24A3.12,3.12,0,0,1,29.5,25.92Z"/><circle class="cls-3" cx="16" cy="16" r="7"/><path class="cls-4" d="M9.85,16.83a7,7,0,0,1,11.42-5.42,7,7,0,1,0-9.69,10A7,7,0,0,1,9.85,16.83Z"/><path class="cls-5" d="M20.4,27a1,1,0,0,0-.06-.34A21.2,21.2,0,0,0,5.21,13.5H5.15A21.65,21.65,0,0,0,1,13V24a3,3,0,0,0,3,3Z"/><path class="cls-6" d="M20,25.92H5.5a3,3,0,0,1-3-3V13.1Q1.75,13,1,13V24a3,3,0,0,0,3,3H20.4a1,1,0,0,0-.06-.34C20.24,26.41,20.13,26.16,20,25.92Z"/><path class="cls-5" d="M28,27a3,3,0,0,0,3-3V13A21.26,21.26,0,0,0,11.31,26.72a.89.89,0,0,0-.07.28Z"/><path class="cls-6" d="M28.85,26.86a2.54,2.54,0,0,0,.46-.17l.15-.08a3.3,3.3,0,0,0,.43-.3l.09-.08a3.27,3.27,0,0,0,.44-.47h0a3.12,3.12,0,0,1-.92.16H11.65c-.12.26-.24.52-.34.8a.89.89,0,0,0-.07.28H28a2.93,2.93,0,0,0,.67-.08Z"/></svg>